<?xml version="1.0" standalone="no"?>
<!DOCTYPE svg PUBLIC "-//W3C//DTD SVG 20010904//EN"
 "http://www.w3.org/TR/2001/REC-SVG-20010904/DTD/svg10.dtd">
<svg version="1.0" xmlns="http://www.w3.org/2000/svg"
 width="410.000000pt" height="410.000000pt" viewBox="0 0 410.000000 410.000000"
 preserveAspectRatio="xMidYMid meet">
<metadata>
Created by potrace 1.14, written by Peter Selinger 2001-2017
</metadata>
<g transform="translate(0.000000,410.000000) scale(0.100000,-0.100000)"
fill="#000000" stroke="none">
<path d="M695 3719 c-69 -13 -89 -18 -120 -27 -237 -75 -435 -260 -522 -491
-40 -107 -52 -186 -49 -311 4 -113 7 -136 27 -215 13 -48 84 -201 99 -210 6
-4 5 -15 -4 -33 -11 -22 -47 -122 -51 -142 -1 -3 -7 -30 -13 -60 -21 -94 -22
-103 -29 -180 -17 -189 -1 -418 37 -536 6 -17 12 -40 14 -50 8 -41 58 -161 97
-233 114 -209 305 -407 524 -541 185 -114 487 -226 710 -266 104 -18 210 -34
260 -38 33 -4 85 -9 115 -12 172 -18 580 -2 785 31 175 29 296 59 446 111 433
150 755 417 923 765 38 80 94 242 102 299 3 19 7 41 10 49 25 74 22 422 -5
541 -5 25 -12 56 -14 70 -3 14 -19 68 -36 119 l-32 94 46 91 c63 128 88 247
82 391 -3 61 -8 121 -11 134 -76 324 -297 554 -611 637 -91 24 -263 26 -365 4
-156 -34 -302 -113 -414 -226 -58 -59 -138 -171 -151 -212 l-7 -24 -121 8
c-224 16 -807 7 -826 -11 -6 -7 -41 26 -41 38 0 20 -91 144 -146 201 -104 104
-246 185 -389 221 -75 19 -253 27 -320 14z"/>
</g>
</svg>
